<svg id="Laag_1" data-name="Laag 1" xmlns="http://www.w3.org/2000/svg" viewBox="0 0 789.2 219.83"><path d="M742.26,486.08H837v25.64H742.46c0,8.07-.33,15.67.13,23.22.24,4.1,3.36,5.36,7.53,5.34,31.5-.12,63,0,94.49,0h3.29v26.29c-1.14.11-2.25.31-3.36.31q-47.5,0-95,0c-13.54,0-24.43-5-30.28-17.8a31.59,31.59,0,0,1-2.86-12.45c-.27-24.83-.18-49.66-.13-74.49,0-17.44,12.85-30.11,30.35-30.12q48,0,96,0h5.3v26.65h-8.48l-87-.06c-8.23,0-10.09,1.73-10.18,9.8C742.21,474,742.26,479.69,742.26,486.08Z" transform="translate(-553.63 -431.57)" style="fill:#fff4f4"/><path d="M1337.72,432.29v26.35h-5.59q-42.75,0-85.49,0c-9.14,0-10.33,1.24-10.35,10.41,0,3.17-.09,6.34.11,9.5.39,6.25,1.67,7.5,7.94,7.52,20.49.08,41-.09,61.49.17,5.42.07,11.17.42,16.17,2.25,11.38,4.17,19.19,12.28,20.23,24.81a137.68,137.68,0,0,1-.15,27.31c-1.75,14.9-14.89,25.78-31.86,26-32.83.46-65.66.15-98.49.14a5,5,0,0,1-1.22-.46V540.21h5.54q45,0,90,0c9.23,0,10.6-1.19,11-10.53a74,74,0,0,0-.37-10c-.61-6.27-2.26-7.73-8.5-7.74-21.83,0-43.66.08-65.49-.05-15.33-.08-27.91-8.75-31.51-22.76-3.23-12.58-3.08-25.59,1.43-37.84s14.23-19.05,27.2-19.22c31.66-.41,63.32-.13,95-.12C1335.59,432,1336.4,432.17,1337.72,432.29Z" transform="translate(-553.63 -431.57)" style="fill:#fff4f4"/><path d="M578.41,566.73H553.63V432c9.71,0,19.34-.18,28.94.17,1.68.06,3.62,2.06,4.87,3.62,13.3,16.61,26.47,33.32,39.72,50,12.52,15.73,25.09,31.41,38.08,47.65v-101h25.85V566.9c-10.38,0-20.5.09-30.62-.11-1.33,0-3-1.31-3.89-2.46Q619.72,518.44,583,472.45c-1.24-1.55-2.61-3-4.58-5.24Z" transform="translate(-553.63 -431.57)" style="fill:#fff4f4"/><path d="M1026.07,432c-19.47,22.85-38.1,44.72-57,66.92l57.66,67.44a29.16,29.16,0,0,1-3.6.49c-9.66,0-19.32.14-29-.1a8.25,8.25,0,0,1-5.49-2.35c-13.67-15.88-27.15-31.93-41-48.29-6.3,7.48-12.47,14.79-18.62,22.11-7.49,8.91-14.92,17.87-22.53,26.68a6.21,6.21,0,0,1-4.17,1.85c-10.64.15-21.29.08-33.15.08l57.59-67.79L870,432c11.9,0,22.82-.11,33.74.14,1.44,0,3.1,1.74,4.22,3q18.33,21.41,36.52,42.95c1.07,1.26,2.09,2.57,3.45,4.25,6.83-8.17,13.48-16.16,20.18-24.11s13.51-16,20.39-23.92a6.42,6.42,0,0,1,4-2.25C1003.28,431.94,1014.06,432,1026.07,432Z" transform="translate(-553.63 -431.57)" style="fill:#fff4f4"/><path d="M1145.61,448.46V431.57c9,.76,18,.73,26.65,2.48,7,1.42,10.4,7.59,10.91,14.55.53,7.12.39,14.31.4,21.46q0,36.22,0,72.44a60.3,60.3,0,0,1-.33,7c-1.07,8.83-7,14.93-15.66,16.26a19.81,19.81,0,0,1-3,.2h-18.84V550.31c4.21-.4,8.47-.87,12.75-1.2s6.27-2.25,6.26-6.66q-.1-43.46,0-86.92c0-3.6-1.41-5.6-5.21-5.83C1155.05,449.43,1150.6,448.92,1145.61,448.46Z" transform="translate(-553.63 -431.57)" style="fill:#00c4d2"/><path d="M1082.22,566.71c-8.17-.62-16-.66-23.62-1.94-8.44-1.43-12.86-6.54-13.41-15-.59-9-.43-18-.48-26.94,0-10.61-.6-11.53-10.33-15.67v-14c1.19-.42,2.26-.83,3.35-1.17,4.68-1.46,7-4.31,7-9.52-.14-11.15-.08-22.31.3-33.46.35-10.47,5.33-15.57,15.71-16.15,6.94-.39,13.93-.07,21.27-.07v15.76c-4.67.33-9.42.69-14.18,1-3.8.24-5.73,2.13-5.77,6-.09,7.16-.45,14.31-.4,21.47.09,14.08.17,14.08-10.59,22.8.16.37.23,1,.55,1.16,8.84,4.79,10.91,12.47,10.14,21.9-.5,6.27.22,12.64.22,19,0,4,2,6.24,5.84,6.73,4.76.59,9.54,1,14.42,1.51Z" transform="translate(-553.63 -431.57)" style="fill:#00c4d2"/><path d="M1100,605.26v45.38h-8.22V620.93c-5.09,8.15-9.3,15-13.61,21.79-2.86,4.52-4.5,4.49-7.4-.12-4.19-6.68-8.27-13.42-13.44-19.83v27.91h-8.52V605.21c5-1.13,8.78-.71,11.62,4.49,4,7.39,8.94,14.32,13.91,22.15,4.9-7.51,9.89-14.28,13.87-21.6C1090.9,605.22,1094.25,603.73,1100,605.26Z" transform="translate(-553.63 -431.57)" style="fill:#00a4f1"/><path d="M1222,604.93h8.78v45.7c-5,1.24-8.74.33-12-4.25-6.15-8.66-13-16.81-20.33-26.15v30.43h-8.71V605.21c4.12-1,7.53-1.06,10.56,3.28,6,8.57,12.64,16.73,19,25,.65.85,1.42,1.62,2.68,3Z" transform="translate(-553.63 -431.57)" style="fill:#00a4f1"/><path d="M606.75,651V605.41c8.54,0,17-.95,25,.24,10.71,1.57,17.53,11.54,17.4,23-.12,10.71-7.83,19.75-18.94,21.91a48.51,48.51,0,0,1-8.45.5C616.85,651.09,611.91,651,606.75,651Zm9.57-7.64c8.28.08,16.4,1.74,21.3-6.78,3.48-6.06,3-14.1-1.12-19.17-3.93-4.84-12.59-6.77-20.18-4.41Z" transform="translate(-553.63 -431.57)" style="fill:#00a4f1"/><path d="M935.69,651.23c-14.56,0-24.45-9-24.47-22.42,0-15.27,9.5-24.71,24.95-24.73,14.42,0,24.46,9.76,24.45,23.8C960.61,641.69,950.47,651.19,935.69,651.23Zm.16-39.38c-9.17,0-15.7,6.57-15.59,15.76s7,16.42,15.36,16.4,15.82-7.71,15.79-16.14C951.38,618.8,944.65,611.88,935.85,611.85Z" transform="translate(-553.63 -431.57)" style="fill:#00a4f1"/><path d="M807.39,612.28V624h21.55v7.56H807.5v12h24.13v7.15H797.92V605.15h32.93v7.13Z" transform="translate(-553.63 -431.57)" style="fill:#00a4f1"/><path d="M1160.16,643.4v7.35h-32.3V605.11h32.21v6.94h-22.43v12h20.49v7.53h-20.5V643.4Z" transform="translate(-553.63 -431.57)" style="fill:#00a4f1"/><path d="M674.81,605h32.06v7h-23.3v12.05H705v7.41H683.61v12.06h24.18v7.12h-33Z" transform="translate(-553.63 -431.57)" style="fill:#00a4f1"/><path d="M985.66,605.25c8.58,0,16.9-.53,25.11.15,7.74.64,12.38,6.44,12.79,14.12s-3.76,13.68-11.45,15.26c-5.46,1.12-11.17,1-17.29,1.52v14.44h-9.16Zm9.45,23.92h8.22a21.16,21.16,0,0,0,3-.12c4.64-.72,8.11-4.5,8.05-8.7-.07-4.46-3.35-8-8.28-8.32-3.57-.26-7.17,0-11,0Z" transform="translate(-553.63 -431.57)" style="fill:#00a4f1"/><path d="M730.23,605.27c9.17-1,9.15-1,11.93,6.38,3.41,9,6.86,18,10.65,27.88,2.65-6.82,5-12.88,7.36-18.94,1.32-3.4,2.61-6.82,3.94-10.22,2.47-6.36,2.48-6.36,10.39-4.85l-12.78,35.1c-.51,1.41-1.06,2.8-1.59,4.2C757.6,651.6,757,652,749.65,651a4.18,4.18,0,0,1-2.91-2C741.2,634.56,735.81,620.12,730.23,605.27Z" transform="translate(-553.63 -431.57)" style="fill:#00a4f1"/><path d="M1294.89,605.19V612H1281v38.62h-9.59V612.4h-14.67v-7.21Z" transform="translate(-553.63 -431.57)" style="fill:#00a4f1"/><path d="M857.7,650.61V605.16h9.44v38.71h22.61v6.74Z" transform="translate(-553.63 -431.57)" style="fill:#00a4f1"/><path d="M1145.68,468.47v6.07h-64v-6.07Z" transform="translate(-553.63 -431.57)" style="fill:#00c4d2"/><path d="M1081.5,515.23v-5.77h64v5.77Z" transform="translate(-553.63 -431.57)" style="fill:#00c4d2"/><path d="M1081.63,529.3h63.92v6h-63.92Z" transform="translate(-553.63 -431.57)" style="fill:#00c4d2"/><path d="M1081.74,494.83v-5.66h63.75c.06,1.43.15,3.33.26,5.66Z" transform="translate(-553.63 -431.57)" style="fill:#00c4d2"/></svg>